<?xml version="1.0" standalone="no"?>
<!DOCTYPE svg PUBLIC "-//W3C//DTD SVG 20010904//EN"
 "http://www.w3.org/TR/2001/REC-SVG-20010904/DTD/svg10.dtd">
<svg version="1.0" xmlns="http://www.w3.org/2000/svg"
 width="1945.162003pt" height="1116.747883pt" viewBox="0 0 1945.162003 1116.747883"
 preserveAspectRatio="xMidYMid meet">
<metadata>
Created by potrace 1.12, written by Peter Selinger 2001-2015
</metadata>
<g transform="translate(-29.500000,1257.000000) scale(0.100000,-0.100000)"
fill="#000000" stroke="none">
<path d="M4500 12528 c247 -329 451 -747 575 -1184 43 -152 88 -347 101 -438
7 -48 6 -49 -17 -44 -286 61 -423 83 -629 98 -475 35 -956 -19 -1427 -161
-411 -123 -833 -335 -1187 -593 -826 -604 -1404 -1546 -1570 -2557 -44 -273
-51 -361 -51 -669 0 -308 7 -400 51 -665 188 -1134 849 -2129 1814 -2732 117
-73 223 -133 237 -133 6 0 -18 91 -54 203 -81 257 -186 617 -224 772 l-29 120
-70 65 c-163 153 -379 417 -505 620 -549 886 -653 1974 -280 2935 246 634 674
1165 1240 1541 148 99 371 221 382 210 6 -5 140 -210 306 -466 41 -63 200
-308 354 -545 154 -236 365 -560 468 -720 104 -159 314 -483 468 -720 154
-236 300 -461 325 -500 25 -38 126 -193 224 -343 99 -150 181 -279 185 -287
13 -35 34 -7 101 133 264 551 496 1286 576 1827 40 266 41 290 40 715 0 454
-8 572 -60 930 -144 991 -544 1860 -1105 2405 -110 107 -248 225 -263 225 -4
0 7 -19 24 -42z m40 -2303 c155 -15 281 -36 430 -71 126 -29 271 -73 286 -85
24 -19 11 -520 -22 -859 -27 -285 -109 -791 -142 -880 -7 -19 -18 -7 -89 101
-44 68 -224 345 -400 614 -176 270 -392 600 -480 735 -88 135 -185 284 -216
331 -31 47 -57 91 -57 97 0 28 458 39 690 17z"/>
<path d="M6100 10497 c0 -3 9 -26 19 -51 69 -160 175 -530 251 -874 l39 -173
123 -128 c727 -750 1053 -1765 897 -2798 -153 -1016 -814 -1939 -1717 -2398
-62 -31 -76 -35 -87 -24 -7 8 -69 102 -138 209 -145 227 -1065 1660 -1155
1800 -93 146 -240 375 -375 586 -377 589 -640 994 -646 994 -27 0 -267 -482
-356 -715 -234 -610 -341 -1152 -352 -1775 -5 -312 5 -505 48 -850 137 -1127
522 -2059 1099 -2664 101 -106 249 -240 256 -233 2 2 -32 67 -77 143 -213 363
-345 645 -455 973 -47 140 -127 440 -139 525 -7 44 -6 48 11 42 11 -3 78 -17
149 -30 1047 -203 2124 29 3007 647 821 575 1404 1469 1608 2465 59 291 74
445 74 787 1 195 -4 355 -12 430 -125 1132 -692 2137 -1579 2799 -155 116
-493 330 -493 313z m-2624 -4915 c17 -26 211 -319 431 -652 521 -789 773
-1179 765 -1184 -20 -12 -270 -29 -432 -29 -332 1 -666 50 -940 140 l-55 18
-3 135 c-9 390 56 1002 159 1490 33 155 30 151 75 82z"/>
<path d="M9125 9338 c-3 -7 -4 -771 -3 -1698 l3 -1685 222 -3 223 -2 2 1127
c3 1060 4 1124 19 1068 9 -33 65 -235 124 -450 122 -445 143 -521 190 -695 19
-69 50 -183 70 -255 33 -120 184 -672 207 -757 l10 -38 229 0 229 0 0 1700 0
1700 -220 0 -220 0 0 -1012 c0 -556 -2 -1009 -5 -1006 -3 3 -16 45 -30 94 -13
49 -74 271 -135 494 -61 223 -147 536 -190 695 -44 160 -101 371 -129 470 -27
99 -54 199 -60 223 l-12 42 -260 0 c-198 0 -261 -3 -264 -12z"/>
<path d="M11600 7650 l0 -1700 660 0 660 0 0 240 0 240 -425 0 -425 0 2 503 3
502 343 3 342 2 0 235 0 235 -345 0 -345 0 0 480 0 480 425 0 425 0 0 240 0
240 -660 0 -660 0 0 -1700z"/>
<path d="M13597 9343 c-5 -8 8 -92 173 -1163 22 -146 52 -339 66 -430 13 -91
29 -190 34 -220 18 -107 31 -192 135 -874 58 -379 108 -693 111 -697 3 -5 140
-9 304 -9 l298 0 6 28 c3 15 20 117 36 227 33 214 135 876 176 1140 23 149 54
355 74 485 5 30 29 188 54 350 25 162 62 401 82 530 20 129 49 318 65 420 16
102 29 193 29 203 0 16 -18 17 -235 17 -151 0 -235 -4 -235 -10 0 -10 -232
-1755 -270 -2030 -11 -80 -29 -219 -41 -310 -11 -91 -24 -181 -28 -200 -8 -33
-8 -34 -14 -10 -5 20 -49 346 -98 720 -17 136 -191 1415 -219 1619 -17 117
-30 215 -30 217 0 8 -469 4 -473 -3z"/>
<path d="M16280 9345 c0 -7 -118 -761 -130 -830 -10 -55 -56 -349 -145 -920
-19 -121 -53 -335 -75 -475 -23 -140 -49 -311 -60 -380 -11 -69 -42 -266 -70
-439 -27 -173 -50 -323 -50 -333 0 -17 12 -18 233 -16 l232 3 12 75 c6 41 28
201 48 355 20 154 38 292 41 308 l6 27 256 -2 257 -3 17 -125 c9 -69 31 -233
48 -365 17 -132 33 -248 36 -257 5 -17 25 -18 240 -18 l234 0 0 31 c0 17 -11
97 -25 178 -13 80 -40 250 -60 376 -20 127 -54 343 -75 480 -22 138 -49 306
-60 375 -11 69 -40 253 -65 410 -25 157 -59 373 -76 480 -44 282 -72 461 -119
760 -22 146 -43 275 -46 288 l-4 22 -300 0 c-165 0 -300 -2 -300 -5z m330
-930 c11 -88 27 -207 35 -265 15 -111 46 -342 95 -710 16 -124 30 -231 30
-238 0 -9 -48 -12 -189 -12 -105 0 -192 3 -194 8 -4 6 25 234 107 842 28 202
76 566 77 576 2 30 20 -63 39 -201z"/>
<path d="M18192 7653 l3 -1698 233 0 232 0 3 715 2 715 107 3 c95 2 107 1 112
-15 5 -16 56 -213 243 -938 35 -137 78 -303 95 -367 l31 -118 249 0 c233 0
249 1 244 18 -3 9 -42 148 -86 307 -43 160 -86 313 -94 340 -8 28 -49 176 -91
330 -43 154 -95 341 -116 415 l-39 135 23 18 c124 100 184 177 236 308 59 150
66 210 65 564 0 313 -1 322 -26 417 -62 228 -172 374 -348 463 -148 74 -238
85 -706 85 l-374 0 2 -1697z m785 1200 c153 -48 203 -167 203 -488 0 -251 -18
-329 -96 -415 -56 -62 -115 -79 -281 -81 l-138 -1 -3 488 c-1 269 0 495 3 502
7 20 245 16 312 -5z"/>
<path d="M2236 8707 c-93 -193 -201 -421 -239 -505 l-69 -154 89 -146 c206
-339 497 -792 504 -785 5 5 20 39 34 76 98 262 296 677 405 850 l62 97 -188
288 c-333 509 -415 632 -422 632 -4 0 -83 -159 -176 -353z"/>
<path d="M5955 6783 c-98 -271 -277 -652 -389 -830 l-64 -103 177 -272 c377
-580 419 -642 428 -645 9 -3 62 81 156 247 116 207 249 507 284 645 41 157 57
113 -161 445 -107 162 -238 361 -291 443 -53 81 -100 147 -105 147 -4 0 -20
-35 -35 -77z"/>
<path d="M9470 5397 c-180 -51 -288 -249 -252 -459 27 -156 109 -237 307 -303
183 -62 261 -120 289 -216 21 -70 20 -114 -4 -192 -56 -180 -259 -245 -394
-126 -49 43 -71 83 -95 173 l-16 61 -68 3 c-77 3 -76 4 -57 -99 40 -210 199
-341 405 -333 129 4 235 64 303 171 54 85 67 136 66 263 0 124 -13 168 -72
254 -22 32 -128 116 -147 116 -3 0 -24 9 -48 19 -23 11 -82 33 -132 51 -119
41 -157 69 -186 133 -58 131 -5 292 113 342 133 55 281 -35 304 -187 4 -23 10
-45 15 -48 6 -4 87 -5 123 -1 14 2 -2 104 -25 166 -50 135 -159 213 -305 221
-47 2 -97 -1 -124 -9z"/>
<path d="M12720 5404 c-83 -16 -167 -74 -216 -149 -101 -159 -84 -397 38 -512
44 -42 85 -64 193 -102 186 -67 261 -116 299 -196 15 -30 17 -56 14 -129 -5
-108 -25 -154 -92 -213 -84 -74 -194 -82 -287 -22 -59 38 -95 94 -119 187
l-17 67 -68 3 -68 3 6 -60 c27 -251 220 -408 457 -370 124 19 214 84 272 196
59 113 71 215 42 344 -32 142 -117 226 -289 289 -189 68 -211 79 -250 117 -36
35 -65 110 -65 168 0 17 7 55 15 83 64 215 356 215 420 0 8 -28 15 -60 15 -70
0 -21 -2 -20 74 -22 38 -2 60 2 63 10 8 22 -17 128 -45 189 -56 118 -153 182
-287 189 -44 3 -91 2 -105 0z"/>
<path d="M19070 5397 c-61 -17 -109 -48 -158 -101 -50 -54 -66 -84 -87 -166
-22 -82 -15 -192 15 -272 39 -105 122 -168 300 -229 199 -68 267 -129 285
-256 12 -94 -20 -196 -83 -265 -30 -33 -118 -68 -169 -68 -126 0 -233 107
-258 258 l-7 42 -64 0 c-77 0 -81 -5 -65 -93 25 -131 100 -242 198 -295 156
-83 353 -54 467 68 76 82 116 189 116 315 0 146 -57 265 -159 334 -52 35 -92
52 -287 126 -84 32 -119 61 -147 124 -58 130 10 307 131 341 91 25 153 10 218
-54 45 -44 54 -59 65 -111 7 -33 16 -65 20 -70 6 -8 72 -11 123 -6 16 2 -3
118 -28 175 -60 134 -160 204 -302 212 -47 2 -97 -1 -124 -9z"/>
<path d="M10675 5379 c-4 -5 93 -223 255 -574 17 -38 65 -142 106 -230 l74
-161 0 -241 0 -241 61 -4 c33 -1 63 -1 65 1 2 2 4 111 4 242 l0 237 76 164
c94 202 307 661 345 746 l28 62 -72 0 -72 0 -45 -97 c-24 -54 -70 -154 -102
-221 -32 -68 -58 -125 -58 -127 0 -2 -26 -59 -58 -127 -32 -67 -67 -144 -78
-170 -10 -27 -25 -48 -31 -48 -7 0 -13 4 -13 10 0 6 -329 750 -344 776 -3 6
-138 9 -141 3z"/>
<path d="M13904 5381 c-2 -2 -4 -33 -4 -68 l0 -63 139 0 c117 0 140 -2 145
-16 3 -9 6 -305 6 -659 l0 -643 58 -4 c32 -2 60 1 64 7 4 5 8 304 8 663 l0
652 145 0 146 0 -3 65 -3 66 -348 2 c-192 1 -351 0 -353 -2z"/>
<path d="M15319 5376 c-11 -12 -12 -1415 -1 -1433 6 -10 92 -13 352 -13 l345
-1 3 65 3 66 -283 2 -283 3 -3 263 -2 262 275 0 c255 0 275 1 276 18 0 9 1 40
2 67 l2 50 -275 5 -275 5 0 255 0 255 283 3 283 2 -3 66 -3 65 -343 2 c-206 1
-347 -2 -353 -7z"/>
<path d="M16732 5375 c-7 -11 -5 -1435 2 -1443 3 -2 31 -5 63 -5 l58 -1 5 629
c3 347 8 625 13 618 4 -6 22 -53 41 -105 69 -190 351 -950 397 -1069 l29 -76
53 5 c28 2 55 7 59 11 3 3 109 281 234 616 125 336 231 614 236 619 4 6 8
-272 8 -617 l0 -627 49 0 c27 0 57 -3 65 -6 15 -6 16 61 14 726 l-3 733 -93 0
c-51 0 -97 -4 -102 -9 -5 -5 -20 -40 -34 -79 -26 -74 -167 -449 -216 -575 -64
-167 -173 -458 -188 -503 -9 -26 -20 -46 -25 -44 -5 1 -58 131 -117 287 -117
311 -335 886 -344 910 -5 12 -26 15 -102 15 -53 0 -99 -4 -102 -10z"/>
</g>
</svg>
